<svg width="44" height="39" viewBox="0 0 44 39" fill="none" xmlns="http://www.w3.org/2000/svg">
    <path d="M22 39C21.3735 39 20.7694 38.774 20.2993 38.363C18.5212 36.8142 16.8077 35.3596 15.296 34.0753L15.2883 34.0685C10.8556 30.3048 7.02711 27.0548 4.36391 23.8536C1.38703 20.2748 0 16.881 0 13.1738C0 9.57192 1.24008 6.24914 3.49078 3.81678C5.76812 1.35531 8.89367 0 12.2916 0C14.8311 0 17.1574 0.799657 19.2053 2.37757C20.2383 3.1738 21.175 4.14812 22 5.2851C22.8259 4.14812 23.7617 3.1738 24.7955 2.37757C26.8426 0.799657 29.1689 0 31.7084 0C35.1063 0 38.2319 1.35531 40.5092 3.81678C42.7608 6.24914 44 9.57192 44 13.1738C44 16.881 42.6138 20.2748 39.6361 23.8536C36.9729 27.0557 33.1452 30.3057 28.7126 34.0685C27.1975 35.3545 25.4813 36.8116 23.6998 38.3639C23.2306 38.774 22.6265 39 22 39ZM12.2916 2.56764C9.62156 2.56764 7.16891 3.62928 5.38484 5.55651C3.57414 7.5137 2.57641 10.2183 2.57641 13.1729C2.57641 16.2911 3.74 19.0796 6.34734 22.2149C8.86789 25.2449 12.6173 28.4281 16.9589 32.1147L16.9666 32.1216C18.4843 33.4101 20.2048 34.8707 21.9957 36.4307C23.797 34.8682 25.52 33.405 27.0411 32.1139C31.3818 28.4281 35.1313 25.2457 37.6518 22.2149C40.2591 19.0796 41.4227 16.2911 41.4227 13.1729C41.4227 10.2175 40.425 7.51284 38.6143 5.55651C36.8302 3.62842 34.3776 2.56764 31.7084 2.56764C29.7524 2.56764 27.9572 3.18664 26.3716 4.40839C24.9588 5.49743 23.9748 6.87414 23.3973 7.83733C23.1009 8.33305 22.5784 8.62842 22 8.62842C21.4216 8.62842 20.8991 8.33305 20.6027 7.83733C20.026 6.87414 19.042 5.49743 17.6284 4.40839C16.0428 3.1875 14.2476 2.56764 12.2916 2.56764Z" fill="#EAEAEA"/>
</svg>